# xmcd
#
# Track frame offsets:
#	150
#	17848
#	37865
#	52997
#	74114
#	94289
#	111886
#	128818
#	144658
#	159534
#
# Disc length: 2342 seconds
#
# Revision: 1
# Processed by: cddbd v1.5.2PL0 Copyright (c) Steve Scherf et al.
# Submitted via: audiograbber 1.83.01
#
DISCID=8b09240a
DTITLE=Lynne Taylor Donovan - Talk to me
DYEAR=2003
DGENRE=Country
TTITLE0=Talk to me
TTITLE1=Soft place
TTITLE2=Why be blue
TTITLE3=Make it on my own
TTITLE4=Turn to stone
TTITLE5=Lies
TTITLE6=(The) silence says it all
TTITLE7=The doctor
TTITLE8=Sometimes in my dreams
TTITLE9=Angel in your eyes
EXTD=
EXTT0=
EXTT1=
EXTT2=
EXTT3=
EXTT4=
EXTT5=
EXTT6=
EXTT7=
EXTT8=
EXTT9=
PLAYORDER=
